Coordinates
version=1
nRows=17
nColumns=38
inDegrees=no

Units are S.I. units (second, meters, Newtons, ...)
If the header above contains a line with 'inDegrees', this indicates whether rotational values are in degrees (yes) or radians (no).

endheader
time	pelvis_tilt	pelvis_list	pelvis_rotation	pelvis_tx	pelvis_ty	pelvis_tz	hip_flexion_r	hip_adduction_r	hip_rotation_r	knee_angle_r	ankle_angle_r	subtalar_angle_r	mtp_angle_r	hip_flexion_l	hip_adduction_l	hip_rotation_l	knee_angle_l	ankle_angle_l	subtalar_angle_l	mtp_angle_l	lumbar_extension	lumbar_bending	lumbar_rotation	arm_flex_r	arm_add_r	arm_rot_r	elbow_flex_r	pro_sup_r	wrist_flex_r	wrist_dev_r	arm_flex_l	arm_add_l	arm_rot_l	elbow_flex_l	pro_sup_l	wrist_flex_l	wrist_dev_l
1.64	0.012776	1.3595	-1.74881	0.889305	-0.133674	0.983572	-0.0711747	0.00922021	-0.0380172	0.393491	0.174264	0	0	0.225298	-0.129034	-0.283183	0.778844	0.319442	0	0	-0.460996	0.0221361	0.109773	0.415881	-0.418206	0.170902	1.05885	0.917776	0	0	0.43361	-0.376001	0.173777	1.00748	0.819731	0	0
1.65	0.0160306	1.35563	-1.75887	0.888769	-0.145689	0.984087	-0.0903599	0.00467641	-0.0341585	0.390142	0.183325	0	0	0.230164	-0.129085	-0.299029	0.734171	0.315262	0	0	-0.462512	0.015974	0.115738	0.413878	-0.417299	0.167518	1.05961	0.919972	0	0	0.433468	-0.376077	0.175027	1.00851	0.817412	0	0
1.66	0.0150237	1.35229	-1.76508	0.888369	-0.157632	0.984427	-0.108411	0.000669048	-0.029821	0.388168	0.192443	0	0	0.234009	-0.129206	-0.314744	0.686482	0.310269	0	0	-0.464194	0.0109249	0.122411	0.412857	-0.417262	0.165008	1.06024	0.92216	0	0	0.433658	-0.375493	0.176098	1.00897	0.815361	0	0
1.67	0.00868689	1.35041	-1.76553	0.888149	-0.169558	0.984476	-0.125113	-0.00214143	-0.0262563	0.385783	0.201078	0	0	0.238353	-0.129999	-0.329531	0.63744	0.306781	0	0	-0.464795	0.00775517	0.129078	0.412728	-0.418047	0.164175	1.06051	0.924149	0	0	0.433775	-0.374565	0.177163	1.00863	0.814161	0	0
1.68	-0.000515729	1.34942	-1.76266	0.888083	-0.181484	0.984274	-0.141244	-0.00430849	-0.0233634	0.382864	0.209371	0	0	0.242143	-0.130328	-0.342335	0.58597	0.304274	0	0	-0.464624	0.00571841	0.135456	0.413473	-0.41922	0.164667	1.05993	0.925361	0	0	0.4342	-0.373615	0.178783	1.00718	0.81338	0	0
1.69	-0.00925982	1.34882	-1.75988	0.888146	-0.193437	0.983871	-0.157295	-0.00672088	-0.0210447	0.379283	0.217823	0	0	0.243767	-0.129052	-0.354481	0.529373	0.301417	0	0	-0.464213	0.00389184	0.141475	0.414306	-0.42064	0.16559	1.05972	0.922946	0	0	0.435181	-0.371645	0.178075	1.00369	0.830903	0	0
1.7	-0.0208876	1.34994	-1.75319	0.888339	-0.205466	0.983078	-0.172014	-0.00805802	-0.0198056	0.375309	0.227172	0	0	0.246078	-0.127783	-0.365129	0.471614	0.299115	0	0	-0.462083	0.00339315	0.147043	0.414143	-0.421827	0.165316	1.06008	0.923973	0	0	0.436382	-0.370841	0.182354	1.00164	0.822366	0	0
1.71	-0.0355938	1.35193	-1.7423	0.88873	-0.217633	0.981991	-0.186904	-0.00845345	-0.0193277	0.369763	0.235396	0	0	0.24803	-0.12609	-0.373814	0.412946	0.296692	0	0	-0.458966	0.00425146	0.151719	0.413555	-0.422748	0.164133	1.06062	0.925264	0	0	0.437266	-0.369232	0.185168	0.998912	0.817936	0	0
1.72	-0.0505158	1.35412	-1.73026	0.889365	-0.229976	0.980693	-0.202766	-0.00894194	-0.0197435	0.36232	0.243514	0	0	0.247641	-0.122387	-0.380259	0.350126	0.291127	0	0	-0.455494	0.00570699	0.155417	0.413098	-0.424047	0.163011	1.06117	0.926842	0	0	0.437483	-0.366859	0.186145	0.996305	0.814676	0	0
1.73	-0.0693592	1.35709	-1.71275	0.89027	-0.24255	0.97911	-0.219419	-0.00844298	-0.0216084	0.352488	0.251157	0	0	0.24571	-0.117858	-0.384352	0.284318	0.281675	0	0	-0.451053	0.0089344	0.157754	0.412472	-0.425716	0.161932	1.06189	0.928619	0	0	0.436576	-0.364098	0.185927	0.994129	0.813186	0	0
1.74	-0.0941794	1.36137	-1.68806	0.891382	-0.255468	0.977129	-0.235591	-0.00644466	-0.0241858	0.341806	0.25866	0	0	0.243643	-0.113356	-0.384896	0.218258	0.269406	0	0	-0.444605	0.014197	0.159203	0.411463	-0.428145	0.16197	1.06273	0.931039	0	0	0.434407	-0.361226	0.184983	0.992305	0.812652	0	0
1.75	-0.127152	1.36657	-1.65407	0.892695	-0.268696	0.974831	-0.251265	-0.00281826	-0.0279203	0.330897	0.265628	0	0	0.241085	-0.109259	-0.380748	0.152634	0.256339	0	0	-0.436491	0.0217847	0.159758	0.410118	-0.43123	0.164065	1.06346	0.931008	0	0	0.431086	-0.358426	0.183644	0.991342	0.812274	0	0
1.76	-0.16989	1.37201	-1.60928	0.894169	-0.282213	0.972297	-0.266623	0.0024675	-0.0329182	0.320506	0.272271	0	0	0.237248	-0.10605	-0.37177	0.0881176	0.243954	0	0	-0.427241	0.0317146	0.159347	0.408451	-0.434298	0.165846	1.06443	0.928397	0	0	0.426682	-0.355768	0.182245	0.991053	0.812604	0	0
1.77	-0.221436	1.37742	-1.5551	0.895736	-0.296054	0.969547	-0.280911	0.00879078	-0.0382338	0.312295	0.279263	0	0	0.229659	-0.102955	-0.351697	0.0201045	0.227908	0	0	-0.416751	0.0433241	0.158739	0.404932	-0.437294	0.166112	1.06712	0.915713	0	0	0.421748	-0.350307	0.173322	0.987074	0.857707	0	0
1.78	-0.281373	1.38068	-1.48851	0.89708	-0.309602	0.966683	-0.296525	0.0197412	-0.0390652	0.305083	0.283049	0	0	0.235994	-0.109936	-0.350331	0	0.233025	0	0	-0.407815	0.05601	0.155382	0.402393	-0.441316	0.172215	1.06743	0.917265	0	0	0.41767	-0.348851	0.174431	0.988602	0.845472	0	0
1.79	-0.34275	1.38232	-1.42159	0.898555	-0.323024	0.963663	-0.31188	0.029179	-0.0400709	0.300103	0.287454	0	0	0.246754	-0.117726	-0.348712	0	0.244536	0	0	-0.400306	0.0682914	0.151964	0.400301	-0.444256	0.176394	1.06847	0.915405	0	0	0.413887	-0.348702	0.176341	0.991615	0.828394	0	0
1.8	-0.349035	1.38015	-1.41349	0.899506	-0.336302	0.962114	-0.3295	0.0271305	-0.0393644	0.299157	0.290599	0	0	0.248191	-0.115395	-0.358462	0	0.25187	0	0	-0.400732	0.0673905	0.148556	0.401041	-0.441997	0.176707	1.06552	0.915046	0	0	0.413562	-0.350837	0.177909	0.993363	0.821601	0	0
